<svg xmlns="http://www.w3.org/2000/svg" viewBox="0 0 64 64" width="64" height="64">
  <defs>
    <!-- 左翅膀渐变 -->
    <linearGradient id="leftWing" x1="0%" y1="0%" x2="100%" y2="100%">
      <stop offset="0%" style="stop-color:#FFD700;stop-opacity:1" />
      <stop offset="50%" style="stop-color:#FFA500;stop-opacity:1" />
      <stop offset="100%" style="stop-color:#FF8C00;stop-opacity:1" />
    </linearGradient>
    
    <!-- 右翅膀渐变 -->
    <linearGradient id="rightWing" x1="100%" y1="0%" x2="0%" y2="100%">
      <stop offset="0%" style="stop-color:#FFD700;stop-opacity:1" />
      <stop offset="50%" style="stop-color:#FFA500;stop-opacity:1" />
      <stop offset="100%" style="stop-color:#FF8C00;stop-opacity:1" />
    </linearGradient>
    
    <!-- 身体渐变 -->
    <linearGradient id="bodyGrad" x1="0%" y1="0%" x2="100%" y2="100%">
      <stop offset="0%" style="stop-color:#8B4513;stop-opacity:1" />
      <stop offset="100%" style="stop-color:#654321;stop-opacity:1" />
    </linearGradient>
    
    <!-- 装饰点渐变 -->
    <radialGradient id="dotGrad" cx="50%" cy="50%" r="50%">
      <stop offset="0%" style="stop-color:#FF6B6B;stop-opacity:1" />
      <stop offset="100%" style="stop-color:#FF4500;stop-opacity:1" />
    </radialGradient>
    
    <!-- 触角渐变 -->
    <linearGradient id="antennaGrad" x1="0%" y1="0%" x2="100%" y2="100%">
      <stop offset="0%" style="stop-color:#8B4513;stop-opacity:1" />
      <stop offset="100%" style="stop-color:#654321;stop-opacity:1" />
    </linearGradient>
    
    <!-- 阴影滤镜 -->
    <filter id="shadow" x="-20%" y="-20%" width="140%" height="140%">
      <feDropShadow dx="2" dy="2" stdDeviation="2" flood-color="#000000" flood-opacity="0.3"/>
    </filter>
    
    <!-- 翅膀高光 -->
    <radialGradient id="wingHighlight" cx="30%" cy="30%" r="70%">
      <stop offset="0%" style="stop-color:rgba(255,255,255,0.4);stop-opacity:1" />
      <stop offset="100%" style="stop-color:rgba(255,255,255,0);stop-opacity:1" />
    </radialGradient>
  </defs>
  
  <!-- 左翅膀 -->
  <g filter="url(#shadow)">
    <path d="M16 16 Q8 24 12 36 Q16 44 24 40 Q32 36 28 24 Q24 16 16 16 Z" 
          fill="url(#leftWing)" 
          stroke="#FF8C00" 
          stroke-width="1.5"/>
    <path d="M16 16 Q8 24 12 36 Q16 44 24 40 Q32 36 28 24 Q24 16 16 16 Z" 
          fill="url(#wingHighlight)" 
          opacity="0.3"/>
  </g>
  
  <!-- 右翅膀 -->
  <g filter="url(#shadow)">
    <path d="M48 16 Q56 24 52 36 Q48 44 40 40 Q32 36 36 24 Q40 16 48 16 Z" 
          fill="url(#rightWing)" 
          stroke="#FF8C00" 
          stroke-width="1.5"/>
    <path d="M48 16 Q56 24 52 36 Q48 44 40 40 Q32 36 36 24 Q40 16 48 16 Z" 
          fill="url(#wingHighlight)" 
          opacity="0.3"/>
  </g>
  
  <!-- 身体 -->
  <ellipse cx="32" cy="32" rx="2" ry="16" 
           fill="url(#bodyGrad)" 
           stroke="#654321" 
           stroke-width="1"
           filter="url(#shadow)"/>
  
  <!-- 身体装饰条纹 -->
  <ellipse cx="32" cy="32" rx="1" ry="14" 
           fill="url(#leftWing)" 
           opacity="0.8"/>
  
  <!-- 触角 -->
  <path d="M30 16 Q28 12 26 16" 
        stroke="url(#antennaGrad)" 
        stroke-width="2" 
        fill="none" 
        stroke-linecap="round"
        filter="url(#shadow)"/>
  <path d="M34 16 Q36 12 38 16" 
        stroke="url(#antennaGrad)" 
        stroke-width="2" 
        fill="none" 
        stroke-linecap="round"
        filter="url(#shadow)"/>
  
  <!-- 触角顶部装饰 -->
  <circle cx="26" cy="16" r="2" fill="#FFD700" stroke="#FF8C00" stroke-width="1"/>
  <circle cx="38" cy="16" r="2" fill="#FFD700" stroke="#FF8C00" stroke-width="1"/>
  
  <!-- 眼睛 -->
  <circle cx="30" cy="28" r="2" fill="#000" stroke="#333" stroke-width="1"/>
  <circle cx="34" cy="28" r="2" fill="#000" stroke="#333" stroke-width="1"/>
  
  <!-- 翅膀装饰点 -->
  <circle cx="20" cy="28" r="1.5" fill="url(#dotGrad)" stroke="#FF4500" stroke-width="0.5"/>
  <circle cx="44" cy="28" r="1.5" fill="url(#dotGrad)" stroke="#FF4500" stroke-width="0.5"/>
  <circle cx="24" cy="36" r="1" fill="#00CED1" stroke="#40E0D0" stroke-width="0.5"/>
  <circle cx="40" cy="36" r="1" fill="#00CED1" stroke="#40E0D0" stroke-width="0.5"/>
  
  <!-- 翅膀纹理 -->
  <path d="M18 20 Q22 24 20 28" 
        stroke="#FF8C00" 
        stroke-width="0.8" 
        fill="none" 
        opacity="0.6"/>
  <path d="M46 20 Q42 24 44 28" 
        stroke="#FF8C00" 
        stroke-width="0.8" 
        fill="none" 
        opacity="0.6"/>
  
  <!-- 身体装饰 -->
  <circle cx="32" cy="28" r="1" fill="#FFD700"/>
  <circle cx="32" cy="36" r="1" fill="#FFD700"/>
</svg>
